<svg width="24" height="24" viewBox="0 0 24 24" fill="none" xmlns="http://www.w3.org/2000/svg">
<path d="M20.62 1.775C21.019 1.826 21.389 1.966 21.711 2.289C22.034 2.611 22.174 2.981 22.225 3.38C22.267 3.716 22.248 4.111 22.228 4.518L22.225 4.569C22.106 7.01 21.369 9.4 19.526 11.243L18.041 12.729C17.392 13.377 17.107 13.675 16.966 13.951C16.868 14.142 16.82 14.363 16.929 14.935L16.934 14.957C17.053 15.433 17.197 16.008 17.198 16.565C17.2 17.179 17.029 17.818 16.488 18.36C15.972 18.876 15.364 19.25 14.656 19.25C13.948 19.25 13.34 18.876 12.824 18.36L5.63999 11.176C5.12399 10.66 4.74999 10.052 4.74999 9.344C4.74999 8.636 5.12399 8.028 5.63999 7.512C6.18199 6.97 6.82099 6.8 7.43399 6.801C7.99199 6.803 8.56699 6.946 9.04299 7.066L9.06499 7.071C9.63599 7.18 9.85799 7.132 10.049 7.034C10.325 6.893 10.623 6.607 11.271 5.959L12.757 4.473C14.599 2.631 16.99 1.894 19.431 1.775L19.481 1.772C19.888 1.752 20.284 1.733 20.62 1.775ZM20.433 3.264C20.242 3.24 19.981 3.25 19.504 3.273C17.309 3.38 15.32 4.032 13.817 5.534L12.332 7.02L12.257 7.094C11.714 7.638 11.246 8.107 10.733 8.369C10.115 8.686 9.50099 8.684 8.75999 8.54C8.74699 8.538 8.73399 8.535 8.72099 8.531C8.19199 8.399 7.78699 8.302 7.43199 8.301C7.11699 8.301 6.89699 8.377 6.70099 8.572C6.32299 8.95 6.24999 9.197 6.24999 9.344C6.24999 9.49 6.32299 9.738 6.70099 10.116L13.884 17.299C14.262 17.677 14.509 17.75 14.656 17.75C14.802 17.75 15.05 17.677 15.427 17.299C15.623 17.103 15.699 16.883 15.698 16.568C15.698 16.213 15.601 15.808 15.469 15.279C15.465 15.266 15.462 15.253 15.46 15.239C15.316 14.498 15.314 13.885 15.631 13.267C15.893 12.754 16.362 12.286 16.906 11.743L18.466 10.183C19.968 8.68 20.62 6.69 20.727 4.496C20.75 4.019 20.76 3.758 20.736 3.567C20.718 3.425 20.689 3.388 20.65 3.349C20.611 3.311 20.575 3.282 20.433 3.264ZM8.02999 17.03L3.02999 22.03C2.73699 22.323 2.26299 22.323 1.96999 22.03C1.67699 21.737 1.67699 21.263 1.96999 20.97L6.96999 15.97C7.26299 15.677 7.73699 15.677 8.02999 15.97C8.32299 16.263 8.32299 16.737 8.02999 17.03ZM5.02999 14.03L3.02999 16.03C2.73699 16.323 2.26299 16.323 1.96999 16.03C1.67699 15.737 1.67699 15.263 1.96999 14.97L3.96999 12.97C4.26299 12.677 4.73699 12.677 5.02999 12.97C5.32299 13.263 5.32299 13.737 5.02999 14.03ZM11.03 18.97C11.323 19.263 11.323 19.737 11.03 20.03L9.02999 22.03C8.73699 22.323 8.26299 22.323 7.96999 22.03C7.67699 21.737 7.67699 21.263 7.96999 20.97L9.96999 18.97C10.263 18.677 10.737 18.677 11.03 18.97ZM15.996 7C15.996 6.448 16.444 6 16.996 6H17.005C17.557 6 18.005 6.448 18.005 7C18.005 7.552 17.557 8 17.005 8H16.996C16.444 8 15.996 7.552 15.996 7Z" fill="#002622"/>
</svg>
