<svg width="24" height="24" viewBox="0 0 24 24" fill="none" xmlns="http://www.w3.org/2000/svg">
<path fill-rule="evenodd" clip-rule="evenodd" d="M14.25 7.5C14.25 7.91 14.59 8.25 15 8.25C15.41 8.25 15.75 7.91 15.75 7.5V5.5C15.75 5.09 15.41 4.75 15 4.75C14.59 4.75 14.25 5.09 14.25 5.5V7.5ZM11.25 7.5C11.25 7.91 11.59 8.25 12 8.25C12.41 8.25 12.75 7.91 12.75 7.5V3.5C12.75 3.09 12.41 2.75 12 2.75C11.59 2.75 11.25 3.09 11.25 3.5V7.5ZM8.25 7.5C8.25 7.91 8.59 8.25 9 8.25C9.41 8.25 9.75 7.91 9.75 7.5V5.5C9.75 5.09 9.41 4.75 9 4.75C8.59 4.75 8.25 5.09 8.25 5.5V7.5ZM2.97998 20.6116C5.10998 21.0916 6.74002 21.2516 8.08002 21.2516V21.2416C9.64002 21.2416 10.82 21.0217 11.98 20.8017L12.0085 20.7963C13.1697 20.578 14.3733 20.3516 16 20.3516C17.28 20.3516 18.47 20.4617 19.53 20.6617C20.32 20.8217 21.17 20.5817 21.82 20.0517C22.4 19.5717 22.74 18.8917 22.74 18.1817V16.6311C22.7466 16.5916 22.75 16.5512 22.75 16.51C22.75 16.4688 22.7466 16.4284 22.74 16.3889V11.0911C22.7466 11.0516 22.75 11.0111 22.75 10.97C22.75 10.9288 22.7466 10.8883 22.74 10.8489V8.4317C22.74 7.5117 22.18 6.72161 21.35 6.46161C20.58 6.22161 19.29 5.9117 17.54 5.8017C17.13 5.7817 16.77 6.09165 16.74 6.50165C16.71 6.92165 17.03 7.2717 17.44 7.3017C17.5495 7.30918 17.657 7.31745 17.7624 7.32643C17.9148 9.34784 19.4581 11.2032 21.24 11.6288V15.8177C19.4241 16.0946 17.8987 17.3394 17.4626 18.9157C16.9857 18.8863 16.4945 18.8716 15.99 18.8716C14.2336 18.8716 12.9597 19.1079 11.7286 19.3363L11.7 19.3416L11.6629 19.3485C10.2336 19.614 8.8487 19.8712 6.74065 19.7001C6.60101 17.4672 4.91303 15.6486 2.73999 15.3075V11.1863C4.44214 10.8941 5.95895 9.62983 6.4964 8.07214C6.87921 8.05974 7.21217 7.77939 7.25 7.39166C7.29 6.97166 6.98001 6.61159 6.57001 6.57159C6.41077 6.55632 6.24677 6.53868 6.07749 6.51844C6.06186 6.51517 6.04604 6.51235 6.03003 6.51001C6.00236 6.50586 5.97478 6.50338 5.94741 6.50251C5.37466 6.4307 4.74193 6.32961 4.03003 6.19159C3.33003 6.06159 2.62002 6.2317 2.08002 6.6817C1.55002 7.1117 1.25 7.75169 1.25 8.42169V10.5V16V18.4416C1.25 19.4916 1.95998 20.3816 2.97998 20.6116ZM19.0014 19.0688C19.346 18.2414 20.2162 17.5725 21.24 17.3443V18.1817C21.24 18.5317 21 18.7817 20.86 18.9017C20.56 19.1517 20.16 19.2616 19.81 19.2016C19.5466 19.1516 19.277 19.1074 19.0014 19.0688ZM21.24 8.4317V10.0586C20.3124 9.67009 19.5015 8.63281 19.2987 7.52457C19.978 7.64405 20.513 7.78387 20.9 7.90167C21.15 7.97167 21.24 8.2217 21.24 8.4317ZM2.73999 18.4416V16.8352C4.02219 17.1357 5.01634 18.1992 5.21409 19.5171C4.62958 19.4264 3.99494 19.3065 3.29999 19.1517C2.96999 19.0817 2.73999 18.7816 2.73999 18.4416ZM4.95155 7.88667C4.55264 8.67786 3.725 9.40262 2.73999 9.65527V8.42169C2.73999 8.12169 2.92002 7.93161 3.02002 7.84161C3.22002 7.68161 3.47998 7.62169 3.72998 7.67169C4.16095 7.75537 4.5674 7.82679 4.95155 7.88667ZM8.75 13.5C8.75 15.29 10.21 16.75 12 16.75C13.79 16.75 15.25 15.29 15.25 13.5C15.25 11.71 13.79 10.25 12 10.25C10.21 10.25 8.75 11.71 8.75 13.5ZM10.25 13.5C10.25 12.54 11.04 11.75 12 11.75C12.96 11.75 13.75 12.54 13.75 13.5C13.75 14.46 12.96 15.25 12 15.25C11.04 15.25 10.25 14.46 10.25 13.5Z" fill="#002622"/>
</svg>
