<svg width="24" height="24" viewBox="0 0 24 24" fill="none" xmlns="http://www.w3.org/2000/svg">
<path d="M23.031 2.52999L21.006 4.55599C21.923 5.75899 22.568 7.45799 22.045 9.66899C21.828 10.609 21.236 11.596 20.469 12.363C20.411 12.421 20.351 12.483 20.288 12.547C20.064 12.776 19.811 13.035 19.56 13.234C19.22 13.504 18.777 13.759 18.213 13.762C17.642 13.774 17.207 13.562 16.859 13.291C16.757 13.212 16.654 13.119 16.554 13.023L15.527 14.025C15.23 14.314 14.755 14.309 14.466 14.012C14.177 13.716 14.182 13.241 14.479 12.952L15.494 11.961C15.344 11.81 15.182 11.647 15.011 11.475C14.802 11.264 14.579 11.04 14.346 10.807L14.339 10.8C13.717 10.161 13.083 9.53099 12.56 9.01099L11.544 10.034C11.252 10.328 10.777 10.329 10.483 10.037C10.189 9.74499 10.188 9.26999 10.48 8.97599L11.497 7.95299C11.436 7.88999 11.388 7.83899 11.356 7.80199C10.991 7.38499 10.734 6.84799 10.773 6.22999C10.812 5.61899 11.131 5.06499 11.638 4.58999C11.677 4.55199 11.718 4.50899 11.765 4.45999C11.978 4.23899 12.29 3.91399 12.825 3.48199C14.123 2.42999 17.203 1.37799 19.948 3.49199L21.97 1.46999C22.263 1.17699 22.738 1.17699 23.031 1.46999C23.323 1.76199 23.323 2.23699 23.031 2.52999ZM2.96599 14.349C3.18299 13.41 3.77499 12.423 4.54199 11.656C4.59999 11.599 4.65999 11.537 4.72299 11.472C4.94699 11.244 5.19999 10.985 5.45099 10.786C5.78999 10.516 6.23399 10.261 6.79799 10.258C7.39799 10.246 7.86299 10.509 8.21199 10.789C8.44899 10.979 8.69199 11.23 8.89099 11.437C8.95899 11.507 9.02099 11.572 9.07699 11.627C9.35199 11.893 9.66099 12.204 10.037 12.582V12.583C10.227 12.774 10.434 12.983 10.663 13.212L10.67 13.219C11.335 13.901 12.015 14.577 12.559 15.115L12.733 15.287V15.288C13.178 15.728 13.535 16.081 13.653 16.215C14.017 16.632 14.274 17.169 14.235 17.786C14.197 18.398 13.877 18.951 13.37 19.426C13.332 19.464 13.29 19.508 13.244 19.556C13.03 19.778 12.718 20.102 12.184 20.534C10.882 21.588 7.79399 22.619 5.05199 20.506L3.02999 22.527C2.73699 22.82 2.26299 22.82 1.96999 22.527C1.67699 22.235 1.67699 21.76 1.96999 21.467L3.99399 19.443C3.07899 18.243 2.44399 16.558 2.96599 14.349ZM13.769 4.64699C13.313 5.01599 13.07 5.26799 12.858 5.48799C12.801 5.54699 12.746 5.60399 12.69 5.65999L12.68 5.66999L12.67 5.67899C12.346 5.97999 12.278 6.20099 12.27 6.32399C12.263 6.44599 12.305 6.60899 12.485 6.81399C12.541 6.87799 12.745 7.08299 13.083 7.41899L13.347 7.67999C13.912 8.23899 14.669 8.98899 15.41 9.74999C15.654 9.99399 15.882 10.223 16.092 10.435L16.093 10.436C16.488 10.834 16.823 11.171 17.085 11.424L17.094 11.433C17.208 11.546 17.3 11.642 17.381 11.726C17.535 11.887 17.647 12.003 17.781 12.108C17.934 12.227 18.042 12.266 18.184 12.262H18.194H18.203C18.293 12.262 18.415 12.228 18.627 12.059C18.797 11.924 18.958 11.76 19.165 11.549C19.239 11.473 19.319 11.391 19.408 11.302C20.017 10.693 20.442 9.94599 20.584 9.32999L20.585 9.32599C21.049 7.36599 20.339 5.98499 19.455 5.04299C17.304 3.00799 14.773 3.83299 13.769 4.64699ZM6.82599 11.758H6.81599H6.80699C6.71799 11.758 6.59599 11.792 6.38399 11.96C6.21299 12.096 6.05299 12.26 5.84599 12.47C5.77099 12.546 5.69099 12.628 5.60299 12.717C4.99399 13.326 4.56899 14.073 4.42699 14.688L4.42599 14.693C3.96199 16.653 4.66299 18.016 5.54399 18.955C7.69799 20.992 10.24 20.178 11.24 19.368C11.696 18.999 11.939 18.747 12.15 18.528C12.207 18.469 12.262 18.412 12.318 18.356L12.328 18.346L12.339 18.337C12.663 18.036 12.73 17.815 12.738 17.692C12.746 17.571 12.703 17.408 12.524 17.203C12.444 17.112 12.121 16.792 11.627 16.303L11.504 16.181C10.96 15.643 10.273 14.961 9.59899 14.269C9.35999 14.03 9.14799 13.816 8.95699 13.624C8.58799 13.252 8.29599 12.958 8.03099 12.702L8.02199 12.694C7.91399 12.587 7.82199 12.491 7.73799 12.403C7.56799 12.227 7.43199 12.086 7.27399 11.959C7.06899 11.795 6.93899 11.755 6.82599 11.758Z" fill="#002622"/>
</svg>
