<svg width="200" height="200" viewBox="0 0 200 200" fill="none" xmlns="http://www.w3.org/2000/svg">
<g clip-path="url(#clip0_211_210)">
<circle cx="100" cy="100" r="100" fill="#002622"/>
<path d="M161.24 44.75C160.852 62.4771 146.722 76.6336 129.313 77.293L128.47 77.3145L128.038 77.3174H115.898C107.299 77.3174 99.8605 82.9065 96.9365 90.8555C96.852 91.0855 96.8852 91.342 97.0254 91.543C97.1657 91.744 97.3955 91.8643 97.6406 91.8643H126.289V104.86H93.0186C84.4495 104.86 77.1848 110.186 74.2148 117.656C74.1232 117.887 74.1515 118.149 74.291 118.354C74.4306 118.56 74.6636 118.683 74.9121 118.683H128.164C139.064 118.683 148.085 109.741 148.467 98.3877H161.241C160.854 116.764 146.271 131.68 128.164 131.68H68.5459C57.7201 131.68 48.9239 140.388 48.5352 151.25H35.7588C36.0864 136.179 46.2617 123.589 59.9902 119.83C60.2694 119.754 60.4794 119.523 60.5303 119.238C62.6949 107.087 71.3832 97.262 82.7578 93.5088C83.0248 93.4207 83.221 93.1908 83.2646 92.9131C85.6365 77.77 97.7212 65.8867 112.84 64.4639C112.98 64.4507 113.108 64.3987 113.214 64.3203H128.043C139.181 64.3203 148.069 55.5245 148.465 44.75H161.24Z" fill="#01D6BD" stroke="#002622" stroke-width="1.5" stroke-linejoin="round"/>
</g>
<defs>
<clipPath id="clip0_211_210">
<rect width="200" height="200" fill="white"/>
</clipPath>
</defs>
</svg>
