<svg width="496" height="115" viewBox="0 0 496 115" fill="none" xmlns="http://www.w3.org/2000/svg">
<path d="M309.581 95V81.56L308.301 78.616V54.552C308.301 50.2853 306.978 46.9573 304.333 44.568C301.773 42.1787 297.805 40.984 292.429 40.984C288.76 40.984 285.133 41.5813 281.549 42.776C278.05 43.8853 275.064 45.4213 272.589 47.384L265.421 33.432C269.176 30.7867 273.698 28.7387 278.989 27.288C284.28 25.8373 289.656 25.112 295.117 25.112C305.613 25.112 313.762 27.5867 319.565 32.536C325.368 37.4853 328.269 45.208 328.269 55.704V95H309.581ZM288.589 96.024C283.213 96.024 278.605 95.128 274.765 93.336C270.925 91.4587 267.981 88.9413 265.933 85.784C263.885 82.6267 262.861 79.0853 262.861 75.16C262.861 71.064 263.842 67.48 265.805 64.408C267.853 61.336 271.053 58.9467 275.405 57.24C279.757 55.448 285.432 54.552 292.429 54.552H310.733V66.2H294.605C289.912 66.2 286.669 66.968 284.877 68.504C283.17 70.04 282.317 71.96 282.317 74.264C282.317 76.824 283.298 78.872 285.261 80.408C287.309 81.8587 290.082 82.584 293.581 82.584C296.909 82.584 299.896 81.816 302.541 80.28C305.186 78.6587 307.106 76.312 308.301 73.24L311.373 82.456C309.922 86.8933 307.277 90.264 303.437 92.568C299.597 94.872 294.648 96.024 288.589 96.024Z" fill="#002622"/>
<path d="M232.996 96.024C225.572 96.024 218.959 94.5307 213.156 91.544C207.353 88.472 202.788 84.248 199.46 78.872C196.217 73.496 194.596 67.3947 194.596 60.568C194.596 53.656 196.217 47.5547 199.46 42.264C202.788 36.888 207.353 32.7067 213.156 29.72C218.959 26.648 225.572 25.112 232.996 25.112C240.249 25.112 246.564 26.648 251.94 29.72C257.316 32.7067 261.284 37.016 263.844 42.648L248.356 50.968C246.564 47.7253 244.303 45.336 241.572 43.8C238.927 42.264 236.025 41.496 232.868 41.496C229.455 41.496 226.383 42.264 223.652 43.8C220.921 45.336 218.745 47.512 217.124 50.328C215.588 53.144 214.82 56.5573 214.82 60.568C214.82 64.5787 215.588 67.992 217.124 70.808C218.745 73.624 220.921 75.8 223.652 77.336C226.383 78.872 229.455 79.64 232.868 79.64C236.025 79.64 238.927 78.9147 241.572 77.464C244.303 75.928 246.564 73.496 248.356 70.168L263.844 78.616C261.284 84.1627 257.316 88.472 251.94 91.544C246.564 94.5307 240.249 96.024 232.996 96.024Z" fill="#002622"/>
<path d="M167.884 96.024C161.996 96.024 156.321 95.3413 150.86 93.976C145.484 92.5253 141.217 90.7333 138.06 88.6L144.716 74.264C147.873 76.2267 151.585 77.848 155.852 79.128C160.204 80.3227 164.471 80.92 168.652 80.92C173.26 80.92 176.503 80.3653 178.38 79.256C180.343 78.1467 181.324 76.6107 181.324 74.648C181.324 73.0267 180.556 71.832 179.02 71.064C177.569 70.2107 175.607 69.5707 173.132 69.144C170.657 68.7173 167.927 68.2907 164.94 67.864C162.039 67.4373 159.095 66.8827 156.108 66.2C153.121 65.432 150.391 64.3227 147.916 62.872C145.441 61.4213 143.436 59.4587 141.9 56.984C140.449 54.5093 139.724 51.3093 139.724 47.384C139.724 43.032 140.961 39.192 143.436 35.864C145.996 32.536 149.665 29.9333 154.444 28.056C159.223 26.0933 164.94 25.112 171.596 25.112C176.289 25.112 181.068 25.624 185.932 26.648C190.796 27.672 194.849 29.1653 198.092 31.128L191.436 45.336C188.108 43.3733 184.737 42.0507 181.324 41.368C177.996 40.6 174.753 40.216 171.596 40.216C167.159 40.216 163.916 40.8133 161.868 42.008C159.82 43.2027 158.796 44.7387 158.796 46.616C158.796 48.3227 159.521 49.6027 160.972 50.456C162.508 51.3093 164.513 51.992 166.988 52.504C169.463 53.016 172.151 53.4853 175.052 53.912C178.039 54.2533 181.025 54.808 184.012 55.576C186.999 56.344 189.687 57.4533 192.076 58.904C194.551 60.2693 196.556 62.1893 198.092 64.664C199.628 67.0533 200.396 70.2107 200.396 74.136C200.396 78.4027 199.116 82.2 196.556 85.528C193.996 88.7707 190.284 91.3307 185.42 93.208C180.641 95.0853 174.796 96.024 167.884 96.024Z" fill="#002622"/>
<path d="M117.956 95V81.56L116.676 78.616V54.552C116.676 50.2853 115.353 46.9573 112.708 44.568C110.148 42.1787 106.18 40.984 100.804 40.984C97.1347 40.984 93.508 41.5813 89.924 42.776C86.4253 43.8853 83.4387 45.4213 80.964 47.384L73.796 33.432C77.5507 30.7867 82.0733 28.7387 87.364 27.288C92.6547 25.8373 98.0307 25.112 103.492 25.112C113.988 25.112 122.137 27.5867 127.94 32.536C133.743 37.4853 136.644 45.208 136.644 55.704V95H117.956ZM96.964 96.024C91.588 96.024 86.98 95.128 83.14 93.336C79.3 91.4587 76.356 88.9413 74.308 85.784C72.26 82.6267 71.236 79.0853 71.236 75.16C71.236 71.064 72.2173 67.48 74.18 64.408C76.228 61.336 79.428 58.9467 83.78 57.24C88.132 55.448 93.8067 54.552 100.804 54.552H119.108V66.2H102.98C98.2867 66.2 95.044 66.968 93.252 68.504C91.5453 70.04 90.692 71.96 90.692 74.264C90.692 76.824 91.6733 78.872 93.636 80.408C95.684 81.8587 98.4573 82.584 101.956 82.584C105.284 82.584 108.271 81.816 110.916 80.28C113.561 78.6587 115.481 76.312 116.676 73.24L119.748 82.456C118.297 86.8933 115.652 90.264 111.812 92.568C107.972 94.872 103.023 96.024 96.964 96.024Z" fill="#002622"/>
<path d="M48.504 96.536C41.592 96.536 35.1493 95.4267 29.176 93.208C23.288 90.904 18.168 87.6613 13.816 83.48C9.464 79.2987 6.05067 74.392 3.576 68.76C1.18667 63.128 -0.00799561 56.9413 -0.00799561 50.2C-0.00799561 43.4587 1.18667 37.272 3.576 31.64C6.05067 26.008 9.464 21.1013 13.816 16.92C18.2533 12.7387 23.416 9.53866 29.304 7.31999C35.192 5.016 41.6347 3.864 48.632 3.864C56.3973 3.864 63.3947 5.22933 69.624 7.96C75.9387 10.6053 81.2293 14.5307 85.496 19.736L72.184 32.024C69.112 28.5253 65.6987 25.9227 61.944 24.216C58.1893 22.424 54.0933 21.528 49.656 21.528C45.4747 21.528 41.6347 22.2107 38.136 23.576C34.6373 24.9413 31.608 26.904 29.048 29.464C26.488 32.024 24.4827 35.0533 23.032 38.552C21.6667 42.0507 20.984 45.9333 20.984 50.2C20.984 54.4667 21.6667 58.3493 23.032 61.848C24.4827 65.3467 26.488 68.376 29.048 70.936C31.608 73.496 34.6373 75.4587 38.136 76.824C41.6347 78.1893 45.4747 78.872 49.656 78.872C54.0933 78.872 58.1893 78.0187 61.944 76.312C65.6987 74.52 69.112 71.832 72.184 68.248L85.496 80.536C81.2293 85.7413 75.9387 89.7093 69.624 92.44C63.3947 95.1707 56.3547 96.536 48.504 96.536Z" fill="#002622"/>
<path d="M496 5C496 24.1229 480.691 39.4567 461.952 39.6951L461.509 39.698H449.172C440.778 39.698 433.494 45.17 430.627 52.9866H460.489V67.7517H425.932C417.554 67.7517 410.447 72.9713 407.54 80.302H461.631C472.503 80.302 481.506 71.154 481.506 59.6309H496C496 79.095 480.716 95.0671 461.631 95.0671H401.074C390.257 95.0673 381.494 103.995 381.494 115H367C367 98.9671 377.678 85.4796 392.183 81.4974C394.431 68.8429 403.454 58.6103 415.272 54.7003C417.732 38.9505 430.272 26.5657 445.994 25.0821V24.9329H461.509C472.662 24.9328 481.506 15.8984 481.506 5H496Z" fill="#002622"/>
<path fill-rule="evenodd" clip-rule="evenodd" d="M399.985 57.876C394.202 63.0149 389.926 69.8453 387.916 77.6123C379.111 80.8102 371.785 87.1149 367.193 95.2119C364.788 95.7525 362.193 96.0244 359.409 96.0244C352.924 96.0244 347.078 94.5732 341.873 91.6719C336.668 88.6852 332.529 84.5465 329.457 79.2559C326.47 73.9653 324.977 67.7362 324.977 60.5684C324.977 53.315 326.47 47.0426 329.457 41.752C332.529 36.4613 336.668 32.3652 341.873 29.4639C347.078 26.5626 352.924 25.1123 359.409 25.1123C365.212 25.1123 370.289 26.3923 374.641 28.9521C376.64 30.1281 378.432 31.5833 380.017 33.3174V0.0244141H399.985V57.876ZM362.865 41.4961C359.537 41.4961 356.551 42.2639 353.905 43.7998C351.26 45.3358 349.126 47.5121 347.505 50.3281C345.969 53.1441 345.201 56.5578 345.201 60.5684C345.201 64.4934 345.969 67.9065 347.505 70.8076C349.126 73.6236 351.26 75.7999 353.905 77.3359C356.551 78.8719 359.537 79.6396 362.865 79.6396C366.108 79.6396 369.052 78.8719 371.697 77.3359C374.343 75.7999 376.433 73.6236 377.969 70.8076C379.59 67.9064 380.401 64.4935 380.401 60.5684C380.401 56.5577 379.59 53.1441 377.969 50.3281C376.433 47.5122 374.343 45.3358 371.697 43.7998C369.052 42.2638 366.108 41.4961 362.865 41.4961Z" fill="#002622"/>
</svg>
