<svg width="24" height="24" viewBox="0 0 24 24" fill="none" xmlns="http://www.w3.org/2000/svg">
<path d="M3.56201 2.46999L7.29801 6.20599C7.30501 6.21299 7.31201 6.21999 7.31901 6.22699L17.803 16.712C17.81 16.718 17.817 16.725 17.824 16.732L21.562 20.47C21.854 20.763 21.854 21.237 21.562 21.53C21.269 21.823 20.794 21.823 20.501 21.53L17.18 18.21C15.714 19.101 13.977 19.75 12.031 19.75C9.46101 19.75 7.25701 18.619 5.55201 17.287C3.84401 15.954 2.58301 14.38 1.87701 13.391L1.82301 13.316C1.57001 12.964 1.28101 12.562 1.28101 12C1.28101 11.438 1.57001 11.036 1.82301 10.684L1.87701 10.609C2.59001 9.60899 3.87801 8.00199 5.62601 6.65499L2.50101 3.52999C2.20801 3.23699 2.20801 2.76299 2.50101 2.46999C2.79401 2.17699 3.26901 2.17699 3.56201 2.46999ZM6.69601 7.72599C5.03701 8.96599 3.79201 10.507 3.09801 11.481C2.93501 11.71 2.85701 11.821 2.81101 11.91C2.78101 11.967 2.78101 11.982 2.78101 11.998V12V12.002C2.78101 12.018 2.78101 12.033 2.81101 12.09C2.85701 12.179 2.93501 12.29 3.09801 12.519C3.75801 13.445 4.92401 14.894 6.47501 16.105C8.02701 17.317 9.91301 18.25 12.031 18.25C13.506 18.25 14.867 17.798 16.084 17.113L14.062 15.091C13.466 15.506 12.741 15.75 11.96 15.75C9.92801 15.75 8.28101 14.103 8.28101 12.071C8.28101 11.29 8.52501 10.565 8.94001 9.96999L6.69601 7.72599ZM12.031 5.74999C11.21 5.74999 10.425 5.88999 9.68101 6.13199C9.28701 6.25999 8.86401 6.04399 8.73601 5.64999C8.60801 5.25599 8.82401 4.83299 9.21801 4.70499C10.096 4.41999 11.037 4.24999 12.031 4.24999C14.602 4.24999 16.805 5.38099 18.511 6.71299C20.218 8.04599 21.48 9.61999 22.186 10.609L22.239 10.684C22.492 11.036 22.781 11.438 22.781 12C22.781 12.562 22.492 12.964 22.239 13.316L22.186 13.391C21.702 14.069 20.961 15.016 19.999 15.971C19.705 16.263 19.23 16.261 18.938 15.967C18.646 15.673 18.648 15.198 18.942 14.907C19.829 14.026 20.516 13.149 20.965 12.519C21.128 12.29 21.206 12.179 21.252 12.09C21.281 12.033 21.281 12.018 21.281 12.003V12.002V12V11.998V11.997C21.281 11.982 21.281 11.967 21.252 11.91C21.206 11.821 21.128 11.71 20.965 11.481C20.304 10.555 19.139 9.10599 17.588 7.89499C16.035 6.68299 14.15 5.74999 12.031 5.74999ZM10.03 11.059C9.87101 11.361 9.78101 11.706 9.78101 12.071C9.78101 13.274 10.757 14.25 11.96 14.25C12.326 14.25 12.67 14.16 12.972 14.002L10.03 11.059Z" fill="#002622"/>
</svg>
