<?xml version="1.0" encoding="UTF-8" standalone="no"?>
<!-- Created with Inkscape (http://www.inkscape.org/) -->

<svg
   width="24"
   height="24"
   viewBox="0 0 6.3499993 6.3499993"
   version="1.1"
   id="svg1"
   xmlns="http://www.w3.org/2000/svg"
   xmlns:svg="http://www.w3.org/2000/svg">
  <defs
     id="defs1" />
  <g
     id="layer1">
    <g
       id="g1"
       transform="translate(0.15369365,-0.01055402)">
      <path
         id="path103"
         d="M 4.1842387,4.2244902 1.8188637,4.1885072 2.1261323,5.586248 c 0,0 0.111125,0.2116667 0.2547064,0.2944998 0.3538352,0.2043641 0.9274519,0.2043641 1.2812898,0 C 3.8057073,5.7979144 3.9168323,5.5862477 3.9168323,5.5862477 L 4.1842387,4.2244902"
         style="fill:#00b09b;fill-opacity:1;fill-rule:nonzero;stroke:none;stroke-width:0.0352777" />
      <path
         id="path104"
         d="m 2.2471368,5.5407764 c 0.03316,0.05856 0.1143,0.1812211 0.1975538,0.2293038 0.3125629,0.1805173 0.8406712,0.1805173 1.1535833,0 0.08255,-0.047659 0.1633379,-0.1690846 0.1972046,-0.227928 L 4.0293701,4.3497625 1.9783202,4.3187533 Z m 0.7743455,0.6214877 c -0.2536455,0 -0.5069417,-0.057044 -0.7044955,-0.1709922 C 2.1458887,5.8928839 2.026297,5.6705969 2.0132452,5.6455144 L 2.0016035,5.6138354 1.6590554,4.0587204 4.3391073,4.0992894 4.0300739,5.6455144 C 4.0166595,5.6705969 3.8967239,5.8928839 3.7259804,5.9912719 3.5284239,6.10522 3.2747785,6.1622641 3.0214823,6.1622641"
         style="fill:#1a162c;fill-opacity:1;fill-rule:nonzero;stroke:none;stroke-width:0.0352777" />
      <path
         id="path105"
         d="m 4.4230701,3.7592125 0.00185,-0.73025 c 0,-0.022939 -0.018706,-0.041627 -0.041627,-0.041627 H 3.3560056 c -0.2201334,-0.031398 -0.4487334,-0.031398 -0.6692186,0 H 1.661262 c -0.022939,0 -0.041627,0.018706 -0.041627,0.041627 l 2.646e-4,0.73025 c -0.00741,0.2899833 0.2494148,0.5814483 0.7796398,0.7408677 0.403225,0.121285 0.8403166,0.121285 1.2435416,0 0.5305769,-0.1594194 0.7874,-0.4508844 0.7799917,-0.7408677"
         style="fill:#ffffff;fill-opacity:1;fill-rule:nonzero;stroke:none;stroke-width:0.0352777" />
      <path
         id="path106"
         d="m 1.7472489,3.1146875 2.646e-4,0.644525 c -0.00635,0.2532936 0.2575269,0.4889844 0.6886205,0.6183842 0.3771212,0.113276 0.7930462,0.113665 1.1701647,2.645e-4 0.4314481,-0.1297887 0.695325,-0.3654795 0.688975,-0.6152462 l 0.00132,-0.6477 H 3.3557383 C 3.1310198,3.0842234 2.9119448,3.0845779 2.7045114,3.1135921 Z M 3.0214823,4.71838 C 2.7981739,4.71838 2.5752201,4.686278 2.362847,4.622037 1.8079285,4.4555958 1.4823137,4.1317458 1.4921906,3.7560375 l -7.937e-4,-0.727075 c 0,-0.093485 0.0762,-0.1696852 0.1696852,-0.1696852 h 1.025525 c 0.212725,-0.030692 0.4564935,-0.031046 0.6872102,0.00132 l 1.0092981,-0.00132 c 0.045156,0 0.087842,0.017992 0.1199436,0.050094 0.032104,0.032102 0.049742,0.07479 0.04939,0.1202981 L 4.550599,3.7581576 C 4.559069,4.1328076 4.2338055,4.4559882 3.6799453,4.622464 3.4675722,4.686282 3.2442638,4.718383 3.0213074,4.718383"
         style="fill:#1a162c;fill-opacity:1;fill-rule:nonzero;stroke:none;stroke-width:0.0352777" />
      <path
         id="path107"
         d="m 4.013847,2.3879644 c 0.5482167,0.3164417 0.5482167,0.8297333 0,1.146175 -0.5482166,0.3164417 -1.4368647,0.3164417 -1.9850814,0 -0.5478621,-0.3164417 -0.5478621,-0.8297333 2.646e-4,-1.146175 0.5478621,-0.3164416 1.4365102,-0.3164416 1.9847269,0"
         style="fill:#00b09b;fill-opacity:1;fill-rule:nonzero;stroke:none;stroke-width:0.0352777" />
      <path
         id="path108"
         d="m 3.0214823,2.2768394 c -0.33655,0 -0.6727455,0.074083 -0.9285103,0.2218981 -0.2240147,0.1291167 -0.3474852,0.2935102 -0.3474852,0.4624917 0,0.1686269 0.1234705,0.3330231 0.3474852,0.4621397 0.5115269,0.2956269 1.3447898,0.2956269 1.8570231,0 0.2240122,-0.1291166 0.3471334,-0.2935128 0.3471334,-0.4621397 0,-0.1689815 -0.1231212,-0.333375 -0.3471334,-0.4624917 v 0 C 3.6938785,2.3509227 3.3576804,2.2768394 3.0214823,2.2768394 Z m 0,1.6241898 c -0.3802936,0 -0.7602353,-0.085373 -1.0565686,-0.2564686 C 1.6587035,3.4678189 1.490074,3.2251061 1.490074,2.9612292 c 0,-0.2642315 0.1686295,-0.5069417 0.4748397,-0.6836834 0.5923148,-0.3421935 1.5204731,-0.342548 2.1127852,0 v 0 c 0.3062129,0.1767417 0.4748398,0.4194519 0.4748398,0.6836834 0,0.2638769 -0.1686269,0.5065897 -0.4748398,0.6833314 -0.2959788,0.1710955 -0.676275,0.2564686 -1.0562166,0.2564686"
         style="fill:#1a162c;fill-opacity:1;fill-rule:nonzero;stroke:none;stroke-width:0.0352777" />
      <path
         id="path109"
         d="m 4.0166701,3.0561273 c -0.5482166,-0.3164417 -1.4368647,-0.3164417 -1.9850814,0 -0.1171231,0.067733 -0.2077852,0.1446371 -0.2748148,0.2264833 0.068088,0.091369 0.1658065,0.1770936 0.2949231,0.2515288 0.5478648,0.3164417 1.4365103,0.3164417 1.9847269,0 C 4.153547,3.4664061 4.2442118,3.3891477 4.3112387,3.3076561 4.2431535,3.2162875 4.1454323,3.1305625 4.0166701,3.0561273"
         style="fill:#1a162c;fill-opacity:1;fill-rule:nonzero;stroke:none;stroke-width:0.0352777" />
      <path
         id="path110"
         d="m 1.9296368,3.2861375 c 0.051504,0.049742 0.1135936,0.095602 0.1859121,0.1372314 0.5118815,0.2956269 1.3451417,0.2956269 1.8570231,0 0.062794,-0.035983 0.1181815,-0.0762 0.1658065,-0.1192397 C 4.086872,3.2543875 4.0247823,3.2085273 3.9528156,3.1668977 v 0 c -0.5122333,-0.2956269 -1.3451417,-0.2956269 -1.857375,0 -0.062794,0.036338 -0.1181788,0.0762 -0.1658038,0.1192398 z m 1.114425,0.6148917 c -0.3802962,0 -0.7602379,-0.085373 -1.0565712,-0.2564686 -0.1397,-0.080433 -0.2518833,-0.1763898 -0.3330204,-0.2850462 l -0.059973,-0.080079 0.0635,-0.077613 C 1.7373721,3.1044561 1.8417952,3.0183792 1.9677368,2.9457061 2.5604035,2.6035125 3.4882073,2.6038644 4.080522,2.9454415 v 2.646e-4 c 0.1393481,0.080433 0.2515315,0.1763897 0.3330231,0.2853981 l 0.059971,0.080081 -0.0635,0.077258 C 4.3302887,3.4858106 4.2262201,3.5718875 4.1002785,3.6445606 3.804297,3.8156561 3.4240035,3.9010292 3.0440618,3.9010292"
         style="fill:#1a162c;fill-opacity:1;fill-rule:nonzero;stroke:none;stroke-width:0.0352777" />
      <path
         id="path111"
         d="m 3.0285387,0.34044401 c 0,0 -0.7602352,0.18485378 -0.7602352,1.36242689 0,1.1772185 0.7602352,1.3624268 0.7602352,1.3624268 0,0 0.7598833,-0.1852083 0.7598833,-1.3624268 0,-1.17757311 -0.7598833,-1.36242689 -0.7598833,-1.36242689"
         style="fill:#00b09b;fill-opacity:1;fill-rule:nonzero;stroke:none;stroke-width:0.0352777" />
      <path
         id="path112"
         d="m 3.0285387,0.4741459 c -0.1329981,0.0490352 -0.6321769,0.295275 -0.6321769,1.228725 0,0.9323916 0.5030602,1.1800416 0.6325288,1.228373 0.1312333,-0.048331 0.631825,-0.2938647 0.631825,-1.228373 0,-0.93239167 -0.5027083,-1.18004167 -0.6321769,-1.228725 z m 0,2.7223852 -0.03034,-0.00706 C 2.9632739,3.1806561 2.140597,2.9658038 2.140597,1.7028603 c 0,-1.26329809 0.8226769,-1.47813977 0.8576019,-1.48660637 l 0.03034,-0.00741 0.03034,0.00741 c 0.034925,0.00847 0.8576019,0.22330828 0.8576019,1.48660637 0,1.2629435 -0.8226769,1.4777852 -0.8576019,1.4866064 l -0.03034,0.00706"
         style="fill:#1a162c;fill-opacity:1;fill-rule:nonzero;stroke:none;stroke-width:0.0352777" />
    </g>
  </g>
</svg>
