<svg width="24" height="24" viewBox="0 0 24 24" fill="none" xmlns="http://www.w3.org/2000/svg">
<path d="M3.25 12.001C3.25 11.627 3.416 11.28 3.573 11.02C3.742 10.739 3.969 10.449 4.219 10.167C4.72 9.60002 5.374 8.99102 6.008 8.44002C6.646 7.88602 7.282 7.37502 7.757 7.00502C7.995 6.81902 8.194 6.66802 8.333 6.56202C8.403 6.51002 8.458 6.46802 8.496 6.44002L8.539 6.40802L8.551 6.39902L8.555 6.39602C8.888 6.15102 9.358 6.22202 9.604 6.55502C9.85 6.88902 9.778 7.35802 9.445 7.60402L9.432 7.61302L9.392 7.64302C9.357 7.66902 9.304 7.70802 9.237 7.75902C9.103 7.86002 8.911 8.00702 8.68 8.18702C8.218 8.54802 7.604 9.04102 6.992 9.57202C6.376 10.107 5.78 10.666 5.343 11.16C5.316 11.191 5.289 11.222 5.263 11.252H20C20.414 11.252 20.75 11.588 20.75 12.002C20.75 12.416 20.414 12.752 20 12.752H5.266C5.291 12.781 5.317 12.811 5.343 12.841C5.78 13.335 6.376 13.894 6.992 14.429C7.604 14.96 8.218 15.453 8.68 15.814C8.911 15.994 9.103 16.141 9.237 16.242C9.304 16.293 9.357 16.332 9.392 16.358L9.432 16.388L9.445 16.397C9.778 16.643 9.85 17.112 9.604 17.446C9.358 17.779 8.888 17.85 8.555 17.605L8.551 17.602L8.539 17.593L8.496 17.561C8.458 17.533 8.403 17.491 8.333 17.439C8.194 17.333 7.995 17.182 7.757 16.996C7.282 16.625 6.646 16.115 6.008 15.561C5.374 15.01 4.72 14.401 4.219 13.834C3.969 13.552 3.742 13.262 3.573 12.981C3.417 12.722 3.252 12.378 3.25 12.007" fill="#002622"/>
</svg>
