<svg width="24" height="24" viewBox="0 0 24 24" fill="none" xmlns="http://www.w3.org/2000/svg">
<path d="M20.75 12.001C20.75 11.627 20.584 11.28 20.427 11.02C20.258 10.739 20.031 10.449 19.781 10.167C19.28 9.60002 18.626 8.99102 17.992 8.44002C17.354 7.88602 16.718 7.37502 16.243 7.00502C16.005 6.81902 15.806 6.66802 15.667 6.56202C15.597 6.51002 15.542 6.46802 15.504 6.44002L15.461 6.40802L15.449 6.39902L15.445 6.39602C15.112 6.15102 14.642 6.22202 14.396 6.55502C14.15 6.88902 14.222 7.35802 14.555 7.60402L14.568 7.61302L14.608 7.64302C14.643 7.66902 14.696 7.70802 14.763 7.75902C14.897 7.86002 15.089 8.00702 15.32 8.18702C15.782 8.54802 16.396 9.04102 17.008 9.57202C17.624 10.107 18.22 10.666 18.657 11.16C18.684 11.191 18.711 11.222 18.737 11.252H4C3.586 11.252 3.25 11.588 3.25 12.002C3.25 12.416 3.586 12.752 4 12.752H18.734C18.709 12.781 18.683 12.811 18.657 12.841C18.22 13.335 17.624 13.894 17.008 14.429C16.396 14.96 15.782 15.453 15.32 15.814C15.089 15.994 14.897 16.141 14.763 16.242C14.696 16.293 14.643 16.332 14.608 16.358L14.568 16.388L14.555 16.397C14.222 16.643 14.15 17.112 14.396 17.446C14.642 17.779 15.112 17.85 15.445 17.605L15.449 17.602L15.461 17.593L15.504 17.561C15.542 17.533 15.597 17.491 15.667 17.439C15.806 17.333 16.005 17.182 16.243 16.996C16.718 16.625 17.354 16.115 17.992 15.561C18.626 15.01 19.28 14.401 19.781 13.834C20.031 13.552 20.258 13.262 20.427 12.981C20.583 12.722 20.748 12.378 20.75 12.007" fill="#002622"/>
</svg>
