<svg width="24" height="24" viewBox="0 0 24 24" fill="none" xmlns="http://www.w3.org/2000/svg">
<path d="M16.36 22.24C16.27 22.24 16.17 22.22 16.08 22.19C15.88 22.11 15.73 21.95 15.66 21.76L13.54 16.07C13.42 15.75 13.5399 15.38 13.8199 15.19C14.7199 14.58 15.25 13.57 15.25 12.5C15.25 10.71 13.79 9.25 12 9.25C10.21 9.25 8.75 10.71 8.75 12.5C8.75 13.58 9.28005 14.59 10.1801 15.19C10.4701 15.38 10.58 15.75 10.46 16.07L8.33997 21.76C8.26997 21.96 8.11004 22.12 7.92004 22.19C7.72004 22.27 7.50006 22.26 7.31006 22.17C3.57006 20.36 1.25 16.65 1.25 12.5C1.25 6.57 6.07 1.75 12 1.75C17.93 1.75 22.75 6.57 22.75 12.5C22.75 16.65 20.4299 20.36 16.6899 22.17C16.5899 22.22 16.47 22.25 16.36 22.25V22.24ZM15.14 16.06L16.77 20.42C19.56 18.75 21.26 15.78 21.26 12.49C21.26 7.38999 17.11 3.23999 12.01 3.23999C6.91001 3.23999 2.76001 7.38999 2.76001 12.49C2.76001 15.78 4.46 18.75 7.25 20.42L8.88 16.06C7.86 15.16 7.27002 13.87 7.27002 12.49C7.27002 9.86999 9.40002 7.73999 12.02 7.73999C14.64 7.73999 16.77 9.86999 16.77 12.49C16.77 13.87 16.18 15.16 15.16 16.06H15.14Z" fill="#002622"/>
</svg>
